{"title":"Crayola kids - Gullivers travels","uid":7446275,"size":2092059087,"categoryP":"video","categoryS":"movies","magnet":"?xt=urn:btih:e3ee1ee5c03358582daec09cc42e0a3a3d90efb2&amp;dn=Crayola+kids+-+Gullivers+travels&amp;tr=udp%3A%2F%2Ftracker.openbittorrent.com%3A80&amp;tr=udp%3A%2F%2Fopen.demonii.com%3A1337&amp;tr=udp%3A%2F%2Ftracker.coppersurfer.tk%3A6969&amp;tr=udp%3A%2F%2Fexodus.desync.com%3A6969","seeders":0,"leechers":0,"uploader":"doobsie101","files":6,"time":1342377592,"description":"Want to copy VHS without spending money? Macrovision is linear, check below for tricking it. one small change. one hugh file size!\n\nGeneral\nComplete name                            : C:Downloads!Captured VideoCrayola kids - Gullivers travelsGullivers Travels.mpg\nFormat                                   : MPEG-PS\nFile size                                : 1.87 GiB\nDuration                                 : 48mn 2s\nOverall bit rate mode                    : Variable\nOverall bit rate                         : 5 566 Kbps\nWriting library                          : created by Nero\n\nVideo\nID                                       : 224 (0xE0)\nFormat                                   : MPEG Video\nFormat version                           : Version 2\nFormat profile                           : Main@Main\nFormat settings, BVOP                    : Yes\nFormat settings, Matrix                  : Default\nFormat settings, GOP                     : M=3, N=12\nDuration                                 : 48mn 2s\nBit rate mode                            : Variable\nBit rate                                 : 3 920 Kbps\nMaximum bit rate                         : 4 845 Kbps\nWidth                                    : 720 pixels\nHeight                                   : 480 pixels\nDisplay aspect ratio                     : 4:3\nFrame rate                               : 29.970 fps\nStandard                                 : NTSC\nColor space                              : YUV\nChroma subsampling                       : 4:2:0\nBit depth                                : 8 bits\nScan type                                : Progressive\nScan order                               : Top Field First\nCompression mode                         : Lossy\nBits/(Pixel*Frame)                       : 0.378\nStream size                              : 1.32 GiB (70%)\nWriting library                          : created by Nero\n\nAudio\nID                                       : 189 (0xBD)-160 (0xA0)\nFormat                                   : PCM\nFormat settings, Endianness              : Big\nFormat settings, Sign                    : Signed\nMuxing mode                              : DVD-Video\nDuration                                 : 48mn 1s\nBit rate mode                            : Constant\nBit rate                                 : 1 536 Kbps\nChannel(s)                               : 2 channels\nSampling rate                            : 48.0 KHz\nBit depth                                : 16 bits\nDelay relative to video                  : -186ms\nStream size                              : 528 MiB (28%)","torrent":{"xt":"urn:btih:e3ee1ee5c03358582daec09cc42e0a3a3d90efb2","amp;dn":"Crayola+kids+-+Gullivers+travels","amp;tr":["udp%3A%2F%2Ftracker.openbittorrent.com%3A80","udp%3A%2F%2Fopen.demonii.com%3A1337","udp%3A%2F%2Ftracker.coppersurfer.tk%3A6969","udp%3A%2F%2Fexodus.desync.com%3A6969"],"infoHash":"e3ee1ee5c03358582daec09cc42e0a3a3d90efb2","infoHashBuffer":{"type":"Buffer","data":[227,238,30,229,192,51,88,88,45,174,192,156,196,46,10,58,61,144,239,178]},"announce":[],"urlList":[]}}